<svg width="20" height="20" viewBox="0 0 20 20" fill="none" xmlns="http://www.w3.org/2000/svg">
<path d="M10 1.875C8.59724 1.87469 7.2183 2.23757 5.99739 2.9283C4.77648 3.61904 3.7552 4.6141 3.03295 5.81664C2.3107 7.01918 1.9121 8.38822 1.87593 9.79052C1.83976 11.1928 2.16727 12.5806 2.82657 13.8188L1.93985 16.4789C1.8664 16.6992 1.85574 16.9355 1.90906 17.1615C1.96239 17.3874 2.07759 17.5941 2.24176 17.7582C2.40593 17.9224 2.61258 18.0376 2.83854 18.0909C3.0645 18.1443 3.30085 18.1336 3.5211 18.0602L6.18125 17.1734C7.27092 17.753 8.47829 18.0767 9.71174 18.12C10.9452 18.1633 12.1723 17.925 13.2999 17.4232C14.4275 16.9215 15.426 16.1694 16.2195 15.2241C17.0131 14.2789 17.5809 13.1652 17.8798 11.9678C18.1787 10.7703 18.2009 9.52047 17.9446 8.31315C17.6884 7.10584 17.1605 5.97276 16.401 4.99993C15.6414 4.02711 14.6703 3.24009 13.5612 2.69864C12.4521 2.15718 11.2342 1.87551 10 1.875ZM10 16.875C8.79139 16.8758 7.60399 16.5575 6.55782 15.9523C6.48122 15.9079 6.39606 15.8803 6.30797 15.8713C6.21989 15.8622 6.13089 15.872 6.04688 15.9L3.125 16.875L4.09922 13.9531C4.1273 13.8692 4.13723 13.7802 4.12834 13.6921C4.11945 13.604 4.09195 13.5188 4.04766 13.4422C3.28982 12.132 2.98556 10.6083 3.18206 9.10747C3.37856 7.60667 4.06484 6.21267 5.13445 5.14171C6.20405 4.07076 7.59719 3.38271 9.09773 3.18431C10.5983 2.98592 12.1224 3.28826 13.4335 4.04444C14.7447 4.80062 15.7697 5.96837 16.3495 7.36652C16.9293 8.76468 17.0315 10.3151 16.6402 11.7773C16.2489 13.2394 15.386 14.5316 14.1854 15.4533C12.9848 16.375 11.5136 16.8748 10 16.875Z" fill="white"/>
</svg>
