<svg width="16" height="16" viewBox="0 0 16 16" fill="none" xmlns="http://www.w3.org/2000/svg">
<path d="M8.58688 1.50372C8.44876 1.49167 8.30964 1.50848 8.17836 1.55308C8.04708 1.59767 7.92651 1.66908 7.8243 1.76277C7.72209 1.85645 7.64049 1.97037 7.58466 2.09728C7.52883 2.22419 7.5 2.36132 7.50001 2.49997V5.04184C7.49828 5.27771 7.58071 5.50646 7.7325 5.687C7.88429 5.86754 8.09548 5.98804 8.32813 6.02684C8.69986 6.08921 9.04639 6.25535 9.3278 6.50611C9.6092 6.75688 9.81402 7.08206 9.91863 7.44417C10.0232 7.80628 10.0234 8.19058 9.91909 8.55278C9.81478 8.91498 9.61024 9.24033 9.32904 9.49133C9.04785 9.74233 8.70145 9.90876 8.32978 9.97143C7.95811 10.0341 7.57628 9.99048 7.22833 9.84558C6.88037 9.70067 6.58045 9.46039 6.36313 9.15243C6.1458 8.84447 6.01993 8.48136 6.00001 8.10497C5.97438 7.59122 6.07938 7.16747 6.31251 6.83872C6.44952 6.6476 6.51412 6.41399 6.49477 6.17962C6.47542 5.94526 6.37338 5.72541 6.20688 5.55934L4.48063 3.79247C4.38223 3.69407 4.26438 3.61729 4.13461 3.56704C4.00484 3.51679 3.86602 3.49417 3.72701 3.50064C3.588 3.50711 3.45187 3.54253 3.32734 3.60462C3.2028 3.6667 3.09259 3.7541 3.00376 3.86122C1.96187 5.10996 1.42804 6.70505 1.5084 8.32937C1.58877 9.9537 2.27744 11.4883 3.43751 12.6281C4.6505 13.8315 6.29132 14.5047 8.00001 14.5H8.09313C9.78346 14.4712 11.3965 13.7869 12.5919 12.5914C13.7872 11.3959 14.4714 9.7828 14.5 8.09247C14.5469 4.69872 11.9494 1.80497 8.58688 1.50372ZM3.77001 4.49622L5.49563 6.25809V6.26185C5.23949 6.62943 5.07863 7.05487 5.02751 7.49997H2.52251C2.62264 6.39502 3.05789 5.34701 3.77001 4.49622ZM2.52313 8.49997H5.04188C5.14557 9.11431 5.43796 9.68113 5.87845 10.1217C6.31895 10.5623 6.88569 10.8549 7.50001 10.9587V13.4775C6.21941 13.3605 5.02029 12.7985 4.11105 11.8891C3.20182 10.9798 2.63996 9.78058 2.52313 8.49997ZM11.8838 11.8837C10.9781 12.7957 9.78001 13.3593 8.50001 13.4756V10.9587C9.07943 10.8623 9.61728 10.5963 10.0456 10.1943C10.4551 9.81282 10.7497 9.32435 10.8962 8.78416C11.0426 8.24396 11.0349 7.67357 10.8742 7.13748C10.7134 6.60139 10.4058 6.12097 9.98625 5.75052C9.5667 5.38008 9.05189 5.13439 8.50001 5.04122V2.49997C11.345 2.75497 13.5419 5.20497 13.5 8.07809C13.4804 9.50933 12.9 10.8758 11.8838 11.8837Z" fill="#333CD3"/>
</svg>
