<svg width="20" height="20" viewBox="0 0 20 20" fill="none" xmlns="http://www.w3.org/2000/svg">
<path d="M11.2016 1.39453C11.1245 1.33047 11.0332 1.28588 10.9353 1.26451C10.8374 1.24314 10.7358 1.24561 10.6391 1.27173C10.5424 1.29785 10.4533 1.34684 10.3795 1.41458C10.3056 1.48231 10.2492 1.56681 10.2148 1.66094L8.49609 6.38047L6.60859 4.55156C6.54521 4.49008 6.46951 4.44273 6.38649 4.41263C6.30347 4.38253 6.21502 4.37037 6.12696 4.37693C6.0389 4.3835 5.95323 4.40866 5.87559 4.45074C5.79796 4.49283 5.73013 4.55089 5.67656 4.62109C3.98438 6.83828 3.125 9.06875 3.125 11.25C3.125 13.0734 3.84933 14.822 5.13864 16.1114C6.42795 17.4007 8.17664 18.125 10 18.125C11.8234 18.125 13.572 17.4007 14.8614 16.1114C16.1507 14.822 16.875 13.0734 16.875 11.25C16.875 6.60547 12.907 2.8125 11.2016 1.39453Z" fill="white"/>
</svg>
