<svg width="16" height="16" viewBox="0 0 16 16" fill="none" xmlns="http://www.w3.org/2000/svg">
<path fill-rule="evenodd" clip-rule="evenodd" d="M5.33337 2.66667C5.33337 2.29848 5.63185 2 6.00004 2H12.6667C13.0349 2 13.3334 2.29848 13.3334 2.66667V11.3333C13.3334 12.8061 12.1395 14 10.6667 14C9.19395 14 8.00004 12.8061 8.00004 11.3333C8.00004 9.86057 9.19395 8.66667 10.6667 8.66667C11.1524 8.66667 11.6078 8.79653 12 9.02342V6H6.66671V11.3333C6.66671 12.8061 5.4728 14 4.00004 14C2.52728 14 1.33337 12.8061 1.33337 11.3333C1.33337 9.86057 2.52728 8.66667 4.00004 8.66667C4.48576 8.66667 4.94114 8.79653 5.33337 9.02342V2.66667ZM6.66671 4.66667H12V3.33333H6.66671V4.66667ZM5.33337 11.3333C5.33337 10.597 4.73642 10 4.00004 10C3.26366 10 2.66671 10.597 2.66671 11.3333C2.66671 12.0697 3.26366 12.6667 4.00004 12.6667C4.73642 12.6667 5.33337 12.0697 5.33337 11.3333ZM12 11.3333C12 10.597 11.4031 10 10.6667 10C9.93033 10 9.33337 10.597 9.33337 11.3333C9.33337 12.0697 9.93033 12.6667 10.6667 12.6667C11.4031 12.6667 12 12.0697 12 11.3333Z" fill="#FAB005"/>
</svg>
