<svg width="48" height="48" viewBox="0 0 48 48" fill="none" xmlns="http://www.w3.org/2000/svg">
<path d="M0 24C0 16.5449 0 12.8174 1.21793 9.87706C2.84183 5.95662 5.95662 2.84183 9.87706 1.21793C12.8174 0 16.5449 0 24 0C31.4551 0 35.1826 0 38.1229 1.21793C42.0434 2.84183 45.1582 5.95662 46.7821 9.87706C48 12.8174 48 16.5449 48 24C48 31.4551 48 35.1826 46.7821 38.1229C45.1582 42.0434 42.0434 45.1582 38.1229 46.7821C35.1826 48 31.4551 48 24 48C16.5449 48 12.8174 48 9.87706 46.7821C5.95662 45.1582 2.84183 42.0434 1.21793 38.1229C0 35.1826 0 31.4551 0 24Z" fill="#F4F5F6"/>
<path d="M31 24C31.0004 24.1698 30.9569 24.3368 30.8736 24.4847C30.7904 24.6327 30.6703 24.7566 30.525 24.8444L21.52 30.3531C21.3682 30.4461 21.1943 30.4969 21.0163 30.5001C20.8383 30.5034 20.6627 30.4592 20.5075 30.3719C20.3538 30.286 20.2258 30.1606 20.1366 30.0088C20.0474 29.857 20.0003 29.6842 20 29.5081V18.4919C20.0003 18.3158 20.0474 18.143 20.1366 17.9912C20.2258 17.8394 20.3538 17.7141 20.5075 17.6281C20.6627 17.5408 20.8383 17.4966 21.0163 17.4999C21.1943 17.5032 21.3682 17.5539 21.52 17.6469L30.525 23.1556C30.6703 23.2434 30.7904 23.3673 30.8736 23.5153C30.9569 23.6633 31.0004 23.8302 31 24Z" fill="#3A4951"/>
</svg>
