<svg width="20" height="20" viewBox="0 0 20 20" fill="none" xmlns="http://www.w3.org/2000/svg">
<g clip-path="url(#clip0_2009_7)">
<path d="M6.60324 2H13.3968C14.6609 2 15.811 2.51562 16.6455 3.34375C17.4813 4.17318 18 5.31771 18 6.57552V13.4258C18 14.681 17.4813 15.8242 16.6481 16.6536L16.6455 16.6563C15.8097 17.4857 14.6596 18 13.3981 18H6.60324C5.33781 18 4.18634 17.4844 3.35189 16.6563L3.32045 16.6211C2.50565 15.7956 2 14.6654 2 13.4245V6.57552C2 5.31641 2.51744 4.17318 3.35189 3.34375C4.18634 2.51432 5.3365 2 6.60324 2ZM13.9876 6.03906L13.9967 6.05339H16.8263C16.7123 5.3138 16.3573 4.64974 15.8464 4.14063C15.2176 3.51563 14.3504 3.1276 13.3968 3.1276H12.2348L13.9876 6.03906ZM12.6789 6.05339L10.917 3.1276H7.05256L8.83543 6.05339H12.6789ZM7.51629 6.05339L5.79237 3.22266C5.16227 3.3737 4.59767 3.69792 4.15359 4.14063C3.64271 4.64844 3.28901 5.3138 3.17374 6.05339H7.51629ZM16.8656 7.18099H3.13444V13.4258C3.13444 14.3594 3.51302 15.2096 4.12477 15.832L4.15359 15.8594C4.78238 16.4844 5.65089 16.8737 6.60324 16.8737H13.3968C14.3504 16.8737 15.2176 16.4857 15.8451 15.862L15.8477 15.8594C16.4752 15.2357 16.8656 14.3737 16.8656 13.4258V7.18099ZM8.67431 9.15495L12.189 11.4271C12.2453 11.4635 12.2964 11.5104 12.337 11.5677C12.4968 11.7982 12.4379 12.1146 12.206 12.2734L8.70575 14.3268C8.61798 14.3984 8.50532 14.4414 8.38087 14.4414C8.09792 14.4414 7.86867 14.2135 7.86867 13.9323V9.57162H7.87129C7.87129 9.47135 7.90142 9.36979 7.96299 9.28125C8.12543 9.05078 8.44375 8.99479 8.67431 9.15495Z" fill="white"/>
</g>
<defs>
<clipPath id="clip0_2009_7">
<rect width="16" height="16" fill="white" transform="translate(2 2)"/>
</clipPath>
</defs>
</svg>
