<svg width="20" height="20" viewBox="0 0 20 20" fill="none" xmlns="http://www.w3.org/2000/svg">
<path d="M16.9834 3.01657C16.842 2.87519 16.6654 2.77408 16.4718 2.72366C16.2783 2.67323 16.0748 2.67532 15.8823 2.72969H15.8718L2.37602 6.82469C2.15633 6.88787 1.9611 7.01647 1.81633 7.19338C1.67156 7.37028 1.58411 7.58709 1.56563 7.81493C1.54715 8.04278 1.59852 8.27084 1.7129 8.46876C1.82727 8.66668 1.99923 8.82506 2.20586 8.92282L8.22602 11.774L11.0772 17.7941C11.1672 17.9869 11.3105 18.1499 11.4902 18.2639C11.6698 18.3779 11.8783 18.4382 12.0911 18.4375C12.1234 18.4375 12.1558 18.4361 12.1881 18.4333C12.4152 18.4149 12.6312 18.3275 12.8071 18.1829C12.9831 18.0382 13.1106 17.8432 13.1725 17.624L17.2647 4.12821C17.2647 4.12469 17.2647 4.12118 17.2647 4.11766C17.3198 3.92568 17.3228 3.7225 17.2733 3.52899C17.2239 3.33548 17.1238 3.15861 16.9834 3.01657ZM12.0974 17.302L12.0939 17.3118L9.32641 11.4695L12.648 8.14727C12.749 8.04092 12.8045 7.89931 12.8026 7.75263C12.8007 7.60596 12.7416 7.46581 12.6379 7.36209C12.5342 7.25836 12.3941 7.19926 12.2474 7.19738C12.1007 7.1955 11.9591 7.251 11.8527 7.35203L8.53047 10.6736L2.68751 7.9061H2.69735L16.1875 3.8125L12.0974 17.302Z" fill="white"/>
</svg>
