<svg width="24" height="24" viewBox="0 0 24 24" fill="none" xmlns="http://www.w3.org/2000/svg">
<path fill-rule="evenodd" clip-rule="evenodd" d="M14.5 6.16667C14.0398 6.16667 13.6667 5.79357 13.6667 5.33333C13.6667 4.8731 14.0398 4.5 14.5 4.5H18.6667C19.1269 4.5 19.5 4.8731 19.5 5.33333V9.5C19.5 9.96024 19.1269 10.3333 18.6667 10.3333C18.2064 10.3333 17.8333 9.96024 17.8333 9.5V7.34518L10.9226 14.2559C10.5972 14.5814 10.0695 14.5814 9.74408 14.2559C9.41864 13.9305 9.41864 13.4028 9.74408 13.0774L16.6548 6.16667H14.5ZM5.23223 7.73223C5.70107 7.26339 6.33696 7 7 7H11.1667C11.6269 7 12 7.3731 12 7.83333C12 8.29357 11.6269 8.66667 11.1667 8.66667H7C6.77899 8.66667 6.56702 8.75446 6.41074 8.91074C6.25446 9.06702 6.16667 9.27899 6.16667 9.5V17C6.16667 17.221 6.25446 17.433 6.41074 17.5893C6.56702 17.7455 6.77899 17.8333 7 17.8333H14.5C14.721 17.8333 14.933 17.7455 15.0893 17.5893C15.2455 17.433 15.3333 17.221 15.3333 17V12.8333C15.3333 12.3731 15.7064 12 16.1667 12C16.6269 12 17 12.3731 17 12.8333V17C17 17.663 16.7366 18.2989 16.2678 18.7678C15.7989 19.2366 15.163 19.5 14.5 19.5H7C6.33696 19.5 5.70107 19.2366 5.23223 18.7678C4.76339 18.2989 4.5 17.663 4.5 17V9.5C4.5 8.83696 4.76339 8.20107 5.23223 7.73223Z" fill="#4E616B"/>
</svg>
