<svg width="35" height="34" viewBox="0 0 35 34" fill="none" xmlns="http://www.w3.org/2000/svg">
<path d="M30.25 14.5H27.6325L23.1794 8.36781C23.0444 8.18253 22.8688 8.03065 22.666 7.92381C22.4632 7.81698 22.2387 7.75804 22.0095 7.75152C21.7804 7.745 21.5529 7.79108 21.3443 7.88621C21.1358 7.98135 20.9518 8.12301 20.8066 8.30031L19.6019 9.69719L19.5831 9.71875C19.5133 9.80644 19.4246 9.87726 19.3237 9.92594C19.2227 9.97461 19.1121 9.99989 19 9.99989C18.8879 9.99989 18.7773 9.97461 18.6763 9.92594C18.5754 9.87726 18.4867 9.80644 18.4169 9.71875L18.3981 9.69719L17.1934 8.30031C17.0482 8.12301 16.8642 7.98135 16.6557 7.88621C16.4471 7.79108 16.2196 7.745 15.9905 7.75152C15.7613 7.75804 15.5368 7.81698 15.334 7.92381C15.1312 8.03065 14.9556 8.18253 14.8206 8.36781L10.3675 14.5H7.75C7.55109 14.5 7.36032 14.579 7.21967 14.7197C7.07902 14.8603 7 15.0511 7 15.25C7 15.4489 7.07902 15.6397 7.21967 15.7803C7.36032 15.921 7.55109 16 7.75 16H30.25C30.4489 16 30.6397 15.921 30.7803 15.7803C30.921 15.6397 31 15.4489 31 15.25C31 15.0511 30.921 14.8603 30.7803 14.7197C30.6397 14.579 30.4489 14.5 30.25 14.5ZM16.0319 9.25L16.0497 9.27156L17.2544 10.6675C17.4654 10.9269 17.7315 11.1361 18.0335 11.2797C18.3354 11.4234 18.6656 11.4979 19 11.4979C19.3344 11.4979 19.6646 11.4234 19.9665 11.2797C20.2685 11.1361 20.5346 10.9269 20.7456 10.6675L21.9503 9.27156C21.9559 9.26406 21.9597 9.2575 21.9662 9.25L25.7781 14.5H12.2209L16.0319 9.25ZM23.875 17.5C23.0449 17.5002 22.2441 17.8062 21.6254 18.3596C21.0068 18.9131 20.6138 19.6751 20.5216 20.5H17.4784C17.386 19.6758 16.9933 18.9146 16.3754 18.3614C15.7574 17.8083 14.9575 17.5021 14.1282 17.5012C13.2988 17.5003 12.4982 17.8048 11.879 18.3565C11.2599 18.9083 10.8656 19.6687 10.7713 20.4927C10.6771 21.3166 10.8895 22.1465 11.3681 22.8238C11.8467 23.5011 12.5579 23.9785 13.366 24.1649C14.1741 24.3512 15.0226 24.2336 15.7494 23.8343C16.4763 23.435 17.0307 22.782 17.3069 22H20.6931C20.8994 22.5834 21.262 23.0988 21.7414 23.49C22.2208 23.8811 22.7986 24.133 23.4115 24.218C24.0243 24.303 24.6488 24.2179 25.2166 23.972C25.7843 23.726 26.2736 23.3287 26.6308 22.8235C26.988 22.3183 27.1995 21.7246 27.2421 21.1073C27.2847 20.49 27.1568 19.8729 26.8723 19.3234C26.5879 18.7739 26.1578 18.3132 25.6292 17.9916C25.1006 17.6701 24.4937 17.5 23.875 17.5ZM14.125 22.75C13.7542 22.75 13.3916 22.64 13.0833 22.434C12.775 22.228 12.5346 21.9351 12.3927 21.5925C12.2508 21.2499 12.2137 20.8729 12.286 20.5092C12.3584 20.1455 12.537 19.8114 12.7992 19.5492C13.0614 19.287 13.3955 19.1084 13.7592 19.036C14.1229 18.9637 14.4999 19.0008 14.8425 19.1427C15.1851 19.2846 15.478 19.525 15.684 19.8333C15.89 20.1416 16 20.5042 16 20.875C16 21.1212 15.9515 21.365 15.8573 21.5925C15.763 21.82 15.6249 22.0267 15.4508 22.2008C15.2767 22.3749 15.07 22.513 14.8425 22.6073C14.615 22.7015 14.3712 22.75 14.125 22.75ZM23.875 22.75C23.5042 22.75 23.1416 22.64 22.8333 22.434C22.525 22.228 22.2846 21.9351 22.1427 21.5925C22.0008 21.2499 21.9637 20.8729 22.036 20.5092C22.1084 20.1455 22.287 19.8114 22.5492 19.5492C22.8114 19.287 23.1455 19.1084 23.5092 19.036C23.8729 18.9637 24.2499 19.0008 24.5925 19.1427C24.9351 19.2846 25.228 19.525 25.434 19.8333C25.64 20.1416 25.75 20.5042 25.75 20.875C25.75 21.3723 25.5525 21.8492 25.2008 22.2008C24.8492 22.5525 24.3723 22.75 23.875 22.75Z" fill="#333CD3"/>
<path d="M10.5 28C10.5 28.0995 10.4605 28.1948 10.3902 28.2652C10.3198 28.3355 10.2245 28.375 10.125 28.375H6.375V32.125C6.375 32.2245 6.33549 32.3198 6.26517 32.3902C6.19484 32.4605 6.09946 32.5 6 32.5C5.90054 32.5 5.80516 32.4605 5.73484 32.3902C5.66451 32.3198 5.625 32.2245 5.625 32.125V28.375H1.875C1.77554 28.375 1.68016 28.3355 1.60984 28.2652C1.53951 28.1948 1.5 28.0995 1.5 28C1.5 27.9005 1.53951 27.8052 1.60984 27.7348C1.68016 27.6645 1.77554 27.625 1.875 27.625H5.625V23.875C5.625 23.7755 5.66451 23.6802 5.73484 23.6098C5.80516 23.5395 5.90054 23.5 6 23.5C6.09946 23.5 6.19484 23.5395 6.26517 23.6098C6.33549 23.6802 6.375 23.7755 6.375 23.875V27.625H10.125C10.2245 27.625 10.3198 27.6645 10.3902 27.7348C10.4605 27.8052 10.5 27.9005 10.5 28Z" fill="#333CD3"/>
</svg>
